<?xml version="1.0" encoding="UTF-8"?>
<svg version="1.1" xmlns="http://www.w3.org/2000/svg" width="482" height="482">
<path d="M0 0 C7.1732793 6.94911433 13.52662077 14.58771831 19.8125 22.3359375 C22.79217695 25.96475836 25.87646991 29.49481671 29 33 C33.21813578 31.46081881 35.3417155 28.34396819 37.9375 24.875 C38.89963254 23.61871123 39.86323979 22.36355084 40.828125 21.109375 C41.33666016 20.44615234 41.84519531 19.78292969 42.36914062 19.09960938 C45.2483932 15.3927872 48.21963337 11.76097374 51.1875 8.125 C51.7642749 7.41714355 52.3410498 6.70928711 52.93530273 5.97998047 C54.28917443 4.31914895 55.64442811 2.65944412 57 1 C61.10280241 1.82313445 62.56985216 3.37167525 65.3125 6.5625 C66.10527344 7.47515625 66.89804687 8.3878125 67.71484375 9.328125 C68.46894531 10.20984375 69.22304688 11.0915625 70 12 C71.12401031 13.27170877 72.24892803 14.54261643 73.375 15.8125 C78.31955667 21.48179074 83.15159258 27.24854382 88 33 C90.92985745 31.69853887 92.78618733 30.40795226 94.83984375 27.953125 C95.5987793 27.0559375 95.5987793 27.0559375 96.37304688 26.140625 C97.14745117 25.20476562 97.14745117 25.20476562 97.9375 24.25 C98.44990234 23.6415625 98.96230469 23.033125 99.49023438 22.40625 C101.00058212 20.60995332 102.50138333 18.8060889 104 17 C104.95944103 15.8487963 105.91906147 14.69774208 106.87890625 13.546875 C107.57886719 12.70640625 108.27882813 11.8659375 109 11 C111.34023771 11.38284637 112.67242187 11.66293888 114.34936523 13.38842773 C114.94793335 14.27703491 114.94793335 14.27703491 115.55859375 15.18359375 C116.25082031 16.1900293 116.25082031 16.1900293 116.95703125 17.21679688 C117.44558594 17.94962891 117.93414062 18.68246094 118.4375 19.4375 C119.5079689 20.9994837 120.57962272 22.56065588 121.65234375 24.12109375 C122.20390137 24.9291748 122.75545898 25.73725586 123.32373047 26.56982422 C125.98434633 30.42705846 128.74338565 34.21110569 131.5 38 C132.59034899 39.51005198 133.680193 41.02046872 134.76953125 42.53125 C136.88035261 45.45656273 139.00453844 48.37148246 141.13671875 51.28125 C153.825311 68.7265514 162.45343336 86.81088354 170 107 C170.30421875 107.78810059 170.6084375 108.57620117 170.921875 109.38818359 C181.02301183 135.67138928 184.14221795 164.11880344 184.1875 192.0625 C184.18876892 192.82597748 184.19003784 193.58945496 184.19134521 194.37606812 C184.19042613 199.25331458 184.11958976 204.1241997 184 209 C183.98743164 210.02971924 183.97486328 211.05943848 183.96191406 212.12036133 C183.76128497 216.480834 183.60933024 218.33644134 180.5859375 221.62890625 C179.52632813 222.26699219 178.46671875 222.90507812 177.375 223.5625 C176.79596924 223.9227124 176.21693848 224.2829248 175.62036133 224.65405273 C174.38938646 225.41335947 173.14886535 226.15737847 171.89990234 226.88671875 C170.02965409 227.98262366 168.19560826 229.1232628 166.36328125 230.28125 C147.26117843 242.23027929 125.96095104 252.72198992 104 258 C88 234.56916996 88 234.56916996 88 230 C91.78864975 228.16038326 95.58139775 226.32937928 99.375 224.5 C100.45523438 223.97535156 101.53546875 223.45070313 102.6484375 222.91015625 C103.6796875 222.41386719 104.7109375 221.91757812 105.7734375 221.40625 C107.20308838 220.71499023 107.20308838 220.71499023 108.66162109 220.00976562 C111 219 111 219 113 219 C111.33454661 216.83358335 111.33454661 216.83358335 109 215 C105.61315529 215.39391695 102.60026058 216.4343312 99.4375 217.671875 C52.29147417 235.71514581 2.84673841 235.66078158 -43.80859375 215.8046875 C-46.38912694 214.85711203 -47.45734894 215.06769461 -50 216 C-50.99 216.33 -51.98 216.66 -53 217 C-53 217.66 -53 218.32 -53 219 C-52.21367187 219.23460937 -51.42734375 219.46921875 -50.6171875 219.7109375 C-45.95815311 221.37128453 -41.57704339 223.47943692 -37.125 225.625 C-35.80628906 226.25535156 -35.80628906 226.25535156 -34.4609375 226.8984375 C-32.30577122 227.9291692 -30.15220078 228.96309426 -28 230 C-29.44036718 234.9989214 -31.61093354 239.04801268 -34.3125 243.4375 C-34.69083984 244.06720703 -35.06917969 244.69691406 -35.45898438 245.34570312 C-38.11312559 249.71538062 -40.98836611 253.86899776 -44 258 C-60.47532145 254.37240629 -76.18651241 246.91497646 -91 239 C-91.65419922 238.65356445 -92.30839844 238.30712891 -92.98242188 237.95019531 C-97.72870878 235.41961405 -102.3801302 232.75379618 -107 230 C-108.10964111 229.3517627 -108.10964111 229.3517627 -109.24169922 228.69042969 C-111.49960294 227.35237694 -113.72003045 225.96634949 -115.9375 224.5625 C-116.63037109 224.15668701 -117.32324219 223.75087402 -118.03710938 223.33276367 C-120.76070779 221.54359131 -122.62151657 220.16373351 -123.65014648 217.00097656 C-123.97355715 214.31087772 -124.01106617 211.71034442 -124 209 C-124.02876221 207.78932861 -124.05752441 206.57865723 -124.0871582 205.33129883 C-124.18195598 201.09554423 -124.19427036 196.8616832 -124.1875 192.625 C-124.18656342 191.86889435 -124.18562683 191.1127887 -124.18466187 190.33377075 C-124.08664744 153.78501365 -116.46783419 118.22849783 -101 85 C-100.62649414 84.18869629 -100.25298828 83.37739258 -99.86816406 82.54150391 C-94.40907215 70.80286539 -88.08246769 60.03546745 -80.68310547 49.42480469 C-78.85329661 46.78864838 -77.05158803 44.13472421 -75.25390625 41.4765625 C-72.10068199 36.81572402 -68.92748535 32.16918469 -65.73925781 27.53222656 C-64.62599369 25.91139901 -63.51568199 24.28853714 -62.40917969 22.66308594 C-61.03269024 20.64332617 -59.6438616 18.63279308 -58.25 16.625 C-57.65904541 15.75053223 -57.65904541 15.75053223 -57.05615234 14.85839844 C-55.953125 13.2890625 -55.953125 13.2890625 -54 11 C-53.01 11 -52.02 11 -51 11 C-49.52954102 12.48120117 -49.52954102 12.48120117 -48.00390625 14.54296875 C-47.44509766 15.28740234 -46.88628906 16.03183594 -46.31054688 16.79882812 C-45.44526367 17.9812207 -45.44526367 17.9812207 -44.5625 19.1875 C-43.41833082 20.72292613 -42.27380808 22.25808885 -41.12890625 23.79296875 C-39.33228253 26.20362165 -37.54778177 28.62070727 -35.77734375 31.05078125 C-35.19082031 31.69402344 -34.60429687 32.33726562 -34 33 C-31.00711395 33.344736 -31.00711395 33.344736 -29.45703125 31.53125 C-28.91433594 30.8609375 -28.37164062 30.190625 -27.8125 29.5 C-25.321454 26.52123341 -22.77551343 23.71623062 -20 21 C-17.40017817 18.44009866 -14.93731602 15.8322046 -12.5625 13.0625 C-8.61564146 8.46696795 -4.32516517 4.23689649 0 0 Z M-50 151 C-47.68412483 163.73731344 -45.34159168 170.6453942 -35.26171875 178.32421875 C-29.06871784 182.10367327 -22.01459115 181.81850538 -15 181 C-11.96966168 180.07340669 -9.58738108 178.80926892 -7 177 C-6.13375 176.46375 -5.2675 175.9275 -4.375 175.375 C0.92694801 170.07305199 4.55938162 163.34715372 6 156 C6 154.35 6 152.7 6 151 C-12.48 151 -30.96 151 -50 151 Z M54 151 C55.04270849 160.3843764 57.1687752 168.1687752 64 175 C72.21061878 180.8575756 78.91530506 181.78436516 89 181 C95.93350361 179.1672586 101.29459958 173.97803427 105.25390625 168.15625 C108.43485863 162.42818816 108.75605363 157.84170506 110 151 C91.52 151 73.04 151 54 151 Z " fill="#FCFCFD" transform="translate(210,110)"/>
</svg>
